REM DIRINDEX 1\2,1\3
REM DIRNAME cjc039,folder01,folder02
TITLE ""
FILE "2521-2540.mp3" MP3
  TRACK 01 AUDIO
    TITLE "0:"
    INDEX 01 00:00:00
  TRACK 02 AUDIO
    TITLE "2:cjc039_4041"
    INDEX 01 00:00:23
  TRACK 03 AUDIO
    TITLE "0:"
    INDEX 01 00:01:58
  TRACK 04 AUDIO
    TITLE "3:cjc039_4042"
    INDEX 01 00:02:34
  TRACK 05 AUDIO
    TITLE "0:"
    INDEX 01 00:06:35
  TRACK 06 AUDIO
    TITLE "2:cjc039_4043"
    INDEX 01 00:08:03
  TRACK 07 AUDIO
    TITLE "0:"
    INDEX 01 00:09:30
  TRACK 08 AUDIO
    TITLE "3:cjc039_4044"
    INDEX 01 00:10:08
  TRACK 09 AUDIO
    TITLE "0:"
    INDEX 01 00:14:47
  TRACK 10 AUDIO
    TITLE "2:cjc039_4045"
    INDEX 01 00:16:26
  TRACK 11 AUDIO
    TITLE "0:"
    INDEX 01 00:17:29
  TRACK 12 AUDIO
    TITLE "3:cjc039_4046"
    INDEX 01 00:18:07
  TRACK 13 AUDIO
    TITLE "0:"
    INDEX 01 00:21:64
  TRACK 14 AUDIO
    TITLE "2:cjc039_4047"
    INDEX 01 00:23:38
  TRACK 15 AUDIO
    TITLE "0:"
    INDEX 01 00:24:74
  TRACK 16 AUDIO
    TITLE "3:cjc039_4048"
    INDEX 01 00:25:50
  TRACK 17 AUDIO
    TITLE "0:"
    INDEX 01 00:29:66
  TRACK 18 AUDIO
    TITLE "2:cjc039_4049"
    INDEX 01 00:31:43
  TRACK 19 AUDIO
    TITLE "0:"
    INDEX 01 00:32:39
  TRACK 20 AUDIO
    TITLE "3:cjc039_4050"
    INDEX 01 00:33:15
  TRACK 21 AUDIO
    TITLE "0:"
    INDEX 01 00:36:60
  TRACK 22 AUDIO
    TITLE "2:cjc039_4051"
    INDEX 01 00:38:39
  TRACK 23 AUDIO
    TITLE "0:"
    INDEX 01 00:39:51
  TRACK 24 AUDIO
    TITLE "3:cjc039_4052"
    INDEX 01 00:40:32
  TRACK 25 AUDIO
    TITLE "0:"
    INDEX 01 00:44:44
  TRACK 26 AUDIO
    TITLE "2:cjc039_4053"
    INDEX 01 00:46:17
  TRACK 27 AUDIO
    TITLE "0:"
    INDEX 01 00:47:09
  TRACK 28 AUDIO
    TITLE "3:cjc039_4054"
    INDEX 01 00:47:66
  TRACK 29 AUDIO
    TITLE "0:"
    INDEX 01 00:50:50
  TRACK 30 AUDIO
    TITLE "2:cjc039_4055"
    INDEX 01 00:52:26
  TRACK 31 AUDIO
    TITLE "0:"
    INDEX 01 00:53:62
  TRACK 32 AUDIO
    TITLE "3:cjc039_4056"
    INDEX 01 00:54:42
  TRACK 33 AUDIO
    TITLE "0:"
    INDEX 01 00:58:52
  TRACK 34 AUDIO
    TITLE "2:cjc039_4057"
    INDEX 01 01:00:27
  TRACK 35 AUDIO
    TITLE "0:"
    INDEX 01 01:01:38
  TRACK 36 AUDIO
    TITLE "3:cjc039_4058"
    INDEX 01 01:02:22
  TRACK 37 AUDIO
    TITLE "0:"
    INDEX 01 01:05:58
  TRACK 38 AUDIO
    TITLE "2:cjc039_4059"
    INDEX 01 01:07:39
  TRACK 39 AUDIO
    TITLE "0:"
    INDEX 01 01:09:10
  TRACK 40 AUDIO
    TITLE "3:cjc039_4060"
    INDEX 01 01:09:61
  TRACK 41 AUDIO
    TITLE "0:"
    INDEX 01 01:14:29
  TRACK 42 AUDIO
    TITLE "2:cjc039_4061"
    INDEX 01 01:16:09
  TRACK 43 AUDIO
    TITLE "0:"
    INDEX 01 01:17:41
  TRACK 44 AUDIO
    TITLE "3:cjc039_4062"
    INDEX 01 01:18:19
  TRACK 45 AUDIO
    TITLE "0:"
    INDEX 01 01:23:71
  TRACK 46 AUDIO
    TITLE "2:cjc039_4063"
    INDEX 01 01:25:49
  TRACK 47 AUDIO
    TITLE "0:"
    INDEX 01 01:27:18
  TRACK 48 AUDIO
    TITLE "3:cjc039_4064"
    INDEX 01 01:27:63
  TRACK 49 AUDIO
    TITLE "0:"
    INDEX 01 01:31:59
  TRACK 50 AUDIO
    TITLE "2:cjc039_4065"
    INDEX 01 01:33:40
  TRACK 51 AUDIO
    TITLE "0:"
    INDEX 01 01:34:46
  TRACK 52 AUDIO
    TITLE "3:cjc039_4066"
    INDEX 01 01:35:24
  TRACK 53 AUDIO
    TITLE "0:"
    INDEX 01 01:39:04
  TRACK 54 AUDIO
    TITLE "2:cjc039_4067"
    INDEX 01 01:40:52
  TRACK 55 AUDIO
    TITLE "0:"
    INDEX 01 01:42:16
  TRACK 56 AUDIO
    TITLE "3:cjc039_4068"
    INDEX 01 01:42:67
  TRACK 57 AUDIO
    TITLE "0:"
    INDEX 01 01:47:31
  TRACK 58 AUDIO
    TITLE "2:cjc039_4069"
    INDEX 01 01:49:08
  TRACK 59 AUDIO
    TITLE "0:"
    INDEX 01 01:50:06
  TRACK 60 AUDIO
    TITLE "3:cjc039_4070"
    INDEX 01 01:50:60
  TRACK 61 AUDIO
    TITLE "0:"
    INDEX 01 01:53:70
  TRACK 62 AUDIO
    TITLE "2:cjc039_4071"
    INDEX 01 01:55:48
  TRACK 63 AUDIO
    TITLE "0:"
    INDEX 01 01:56:69
  TRACK 64 AUDIO
    TITLE "3:cjc039_4072"
    INDEX 01 01:57:45
  TRACK 65 AUDIO
    TITLE "0:"
    INDEX 01 02:01:56
  TRACK 66 AUDIO
    TITLE "2:cjc039_4073"
    INDEX 01 02:03:38
  TRACK 67 AUDIO
    TITLE "0:"
    INDEX 01 02:04:41
  TRACK 68 AUDIO
    TITLE "3:cjc039_4074"
    INDEX 01 02:05:23
  TRACK 69 AUDIO
    TITLE "0:"
    INDEX 01 02:08:37
  TRACK 70 AUDIO
    TITLE "2:cjc039_4075"
    INDEX 01 02:10:16
  TRACK 71 AUDIO
    TITLE "0:"
    INDEX 01 02:11:49
  TRACK 72 AUDIO
    TITLE "3:cjc039_4076"
    INDEX 01 02:12:29
  TRACK 73 AUDIO
    TITLE "0:"
    INDEX 01 02:16:58
  TRACK 74 AUDIO
    TITLE "2:cjc039_4077"
    INDEX 01 02:18:33
  TRACK 75 AUDIO
    TITLE "0:"
    INDEX 01 02:19:40
  TRACK 76 AUDIO
    TITLE "3:cjc039_4078"
    INDEX 01 02:20:18
  TRACK 77 AUDIO
    TITLE "0:"
    INDEX 01 02:23:38
  TRACK 78 AUDIO
    TITLE "2:cjc039_4079"
    INDEX 01 02:25:14
  TRACK 79 AUDIO
    TITLE "0:"
    INDEX 01 02:26:56
  TRACK 80 AUDIO
    TITLE "3:cjc039_4080"
    INDEX 01 02:27:34
  TRACK 81 AUDIO
    TITLE "0:"
    INDEX 01 02:32:10
